<svg width="30" height="30" viewBox="0 0 30 30" fill="none" xmlns="http://www.w3.org/2000/svg">
<path d="M27.0607 20.458L22.8188 19.9736C21.8001 19.8567 20.7981 20.2074 20.08 20.9256L17.0071 23.9984C12.2809 21.5936 8.40642 17.7358 6.00157 12.9929L9.09114 9.90332C9.80925 9.1852 10.16 8.18318 10.0431 7.16446L9.55875 2.95597C9.35834 1.26923 7.93881 0 6.23537 0H3.34621C1.45907 0 -0.110768 1.56983 0.00613485 3.45698C0.891254 17.7191 12.2976 29.1087 26.543 29.9939C28.4302 30.1108 30 28.5409 30 26.6538V23.7646C30.0167 22.0779 28.7475 20.6584 27.0607 20.458Z" fill="#BA7F45"/>
</svg>
